<?xml version="1.0" standalone="no"?>
<!DOCTYPE svg PUBLIC "-//W3C//DTD SVG 20010904//EN"
 "http://www.w3.org/TR/2001/REC-SVG-20010904/DTD/svg10.dtd">
<svg version="1.0" xmlns="http://www.w3.org/2000/svg"
 width="700.000000pt" height="700.000000pt" viewBox="0 0 700.000000 700.000000"
 preserveAspectRatio="xMidYMid meet">
<metadata>
Created by potrace 1.11, written by Peter Selinger 2001-2013
</metadata>
<g transform="translate(0.000000,700.000000) scale(0.100000,-0.100000)"
fill="#000000" stroke="none">
<path d="M0 5138 c0 -1057 4 -1858 9 -1853 4 6 127 190 271 410 315 480 986
1478 1020 1518 3 4 -15 -98 -41 -225 -303 -1500 -378 -2782 -204 -3469 99
-391 260 -602 525 -688 208 -68 545 -68 920 -1 726 131 1871 564 3039 1150 67
33 121 58 121 56 0 -9 -986 -723 -1590 -1151 -569 -403 -616 -436 -946 -665
l-311 -215 2090 -3 c1150 -1 2092 -1 2094 1 2 2 2 873 1 1936 l-3 1932 -190
-288 c-408 -617 -987 -1475 -992 -1469 -2 2 19 115 47 252 283 1416 362 2596
223 3318 -87 455 -258 706 -549 806 -115 40 -242 53 -462 47 -215 -5 -316 -17
-562 -67 -703 -143 -1708 -524 -2800 -1063 -146 -72 -269 -133 -275 -135 -52
-24 1387 1013 2133 1536 l274 192 -1921 0 -1921 0 0 -1862z m2805 112 c838
-42 1417 -185 1768 -438 96 -69 282 -259 359 -367 150 -212 307 -504 417 -778
110 -273 236 -678 315 -1012 42 -176 106 -496 106 -527 0 -14 -24 14 -71 83
-458 667 -1040 1270 -1559 1616 -437 292 -1423 788 -2488 1253 -155 68 -281
124 -280 126 2 1 95 10 208 19 402 32 878 42 1225 25z m-1445 -26 c0 -2 -7 -4
-15 -4 -8 0 -15 4 -15 10 0 5 7 7 15 4 8 -4 15 -8 15 -10z m228 -386 c457
-614 971 -1122 1437 -1420 463 -297 1437 -785 2433 -1218 105 -46 192 -87 192
-90 0 -16 -659 -50 -965 -50 -290 0 -779 30 -970 60 -359 56 -517 92 -737 168
-366 127 -599 305 -832 634 -336 476 -632 1299 -800 2228 -6 31 1 25 51 -49
32 -47 118 -165 191 -263z"/>
</g>
</svg>
